<?xml version="1.0" encoding="UTF-8" standalone="no"?>
<!DOCTYPE svg PUBLIC "-//W3C//DTD SVG 1.1//EN"
 "http://www.w3.org/Graphics/SVG/1.1/DTD/svg11.dtd">
<!-- Generated by graphviz version 2.40.1 (20161225.0304)
 -->
<!-- Title: dependencies Pages: 1 -->
<svg width="522pt" height="284pt"
 viewBox="0.00 0.00 522.00 284.00" xmlns="http://www.w3.org/2000/svg" xmlns:xlink="http://www.w3.org/1999/xlink">
<g id="graph0" class="graph" transform="scale(1 1) rotate(0) translate(4 280)">
<title>dependencies</title>
<polygon fill="#ffffff" stroke="transparent" points="-4,4 -4,-280 518,-280 518,4 -4,4"/>
<text text-anchor="start" x="236.0091" y="-42.4" font-family="sans-serif" font-weight="bold" font-size="14.00" fill="#000000">Legend</text>
<polygon fill="#ffffb3" stroke="transparent" points="23,-10 23,-30 43,-30 43,-10 23,-10"/>
<text text-anchor="start" x="46.629" y="-15.4" font-family="sans-serif" font-size="14.00" fill="#000000"> &#160;Declarations</text>
<polygon fill="#8dd3c7" stroke="transparent" points="136,-10 136,-30 156,-30 156,-10 136,-10"/>
<text text-anchor="start" x="159.7251" y="-15.4" font-family="sans-serif" font-size="14.00" fill="#000000"> &#160;Module</text>
<polygon fill="#80b1d3" stroke="transparent" points="222,-10 222,-30 242,-30 242,-10 222,-10"/>
<text text-anchor="start" x="245.7812" y="-15.4" font-family="sans-serif" font-size="14.00" fill="#000000"> &#160;Bootstrap</text>
<polygon fill="#fdb462" stroke="transparent" points="319,-10 319,-30 339,-30 339,-10 319,-10"/>
<text text-anchor="start" x="342.6732" y="-15.4" font-family="sans-serif" font-size="14.00" fill="#000000"> &#160;Providers</text>
<polygon fill="#fb8072" stroke="transparent" points="415,-10 415,-30 435,-30 435,-10 415,-10"/>
<text text-anchor="start" x="438.7258" y="-15.4" font-family="sans-serif" font-size="14.00" fill="#000000"> &#160;Exports</text>
<g id="clust1" class="cluster">
<title>cluster_NgxVisNetworkEtsisiModule</title>
<polygon fill="none" stroke="#000000" stroke-dasharray="1,5" points="8,-70 8,-268 506,-268 506,-70 8,-70"/>
</g>
<g id="clust2" class="cluster">
<title>cluster_NgxVisNetworkEtsisiModule_declarations</title>
<polygon fill="none" stroke="#000000" points="290,-78 290,-130 498,-130 498,-78 290,-78"/>
</g>
<g id="clust5" class="cluster">
<title>cluster_NgxVisNetworkEtsisiModule_exports</title>
<polygon fill="none" stroke="#000000" points="164,-208 164,-260 376,-260 376,-208 164,-208"/>
</g>
<g id="clust7" class="cluster">
<title>cluster_NgxVisNetworkEtsisiModule_providers</title>
<polygon fill="none" stroke="#000000" points="16,-78 16,-130 282,-130 282,-78 16,-78"/>
</g>
<!-- NgxVisNetworkEtsisiDirective -->
<g id="node1" class="node">
<title>NgxVisNetworkEtsisiDirective</title>
<polygon fill="#ffffb3" stroke="#000000" points="489.724,-122 298.276,-122 298.276,-86 489.724,-86 489.724,-122"/>
<text text-anchor="middle" x="394" y="-99.8" font-family="Times,serif" font-size="14.00" fill="#000000">NgxVisNetworkEtsisiDirective</text>
</g>
<!-- NgxVisNetworkEtsisiModule -->
<g id="node2" class="node">
<title>NgxVisNetworkEtsisiModule</title>
<polygon fill="#8dd3c7" stroke="#000000" points="361.6909,-187 358.6909,-191 337.6909,-191 334.6909,-187 178.3091,-187 178.3091,-151 361.6909,-151 361.6909,-187"/>
<text text-anchor="middle" x="270" y="-164.8" font-family="Times,serif" font-size="14.00" fill="#000000">NgxVisNetworkEtsisiModule</text>
</g>
<!-- NgxVisNetworkEtsisiDirective&#45;&gt;NgxVisNetworkEtsisiModule -->
<g id="edge1" class="edge">
<title>NgxVisNetworkEtsisiDirective&#45;&gt;NgxVisNetworkEtsisiModule</title>
<path fill="none" stroke="#000000" d="M329.8668,-122.1061C329.8668,-122.1061 329.8668,-140.991 329.8668,-140.991"/>
<polygon fill="#000000" stroke="#000000" points="326.3668,-140.9909 329.8668,-150.991 333.3668,-140.991 326.3668,-140.9909"/>
</g>
<!-- NgxVisNetworkEtsisiDirective  -->
<g id="node3" class="node">
<title>NgxVisNetworkEtsisiDirective </title>
<polygon fill="#fb8072" stroke="#000000" points="367.7239,-252 172.2761,-252 172.2761,-216 367.7239,-216 367.7239,-252"/>
<text text-anchor="middle" x="270" y="-229.8" font-family="Times,serif" font-size="14.00" fill="#000000">NgxVisNetworkEtsisiDirective </text>
</g>
<!-- NgxVisNetworkEtsisiModule&#45;&gt;NgxVisNetworkEtsisiDirective  -->
<g id="edge2" class="edge">
<title>NgxVisNetworkEtsisiModule&#45;&gt;NgxVisNetworkEtsisiDirective </title>
<path fill="none" stroke="#000000" stroke-dasharray="5,2" d="M270,-187.1061C270,-187.1061 270,-205.991 270,-205.991"/>
<polygon fill="#000000" stroke="#000000" points="266.5001,-205.9909 270,-215.991 273.5001,-205.991 266.5001,-205.9909"/>
</g>
<!-- NgxVisNetworkEtsisiService -->
<g id="node4" class="node">
<title>NgxVisNetworkEtsisiService</title>
<ellipse fill="#fdb462" stroke="#000000" cx="149" cy="-104" rx="125.0548" ry="18"/>
<text text-anchor="middle" x="149" y="-99.8" font-family="Times,serif" font-size="14.00" fill="#000000">NgxVisNetworkEtsisiService</text>
</g>
<!-- NgxVisNetworkEtsisiService&#45;&gt;NgxVisNetworkEtsisiModule -->
<g id="edge3" class="edge">
<title>NgxVisNetworkEtsisiService&#45;&gt;NgxVisNetworkEtsisiModule</title>
<path fill="none" stroke="#000000" d="M226.3409,-118.4256C226.3409,-118.4256 226.3409,-140.8939 226.3409,-140.8939"/>
<polygon fill="#000000" stroke="#000000" points="222.841,-140.8938 226.3409,-150.8939 229.841,-140.8939 222.841,-140.8938"/>
</g>
</g>
</svg>
